<svg xmlns="http://www.w3.org/2000/svg" xmlns:xlink="http://www.w3.org/1999/xlink" width="500" zoomAndPan="magnify" viewBox="0 0 375 374.999991" height="500" preserveAspectRatio="xMidYMid meet" version="1.0"><defs><clipPath id="id1"><path d="M 23.4375 133 L 172 133 L 172 375 L 23.4375 375 Z M 23.4375 133 " clip-rule="nonzero"/></clipPath></defs><g clip-path="url(#id1)"><path fill="#ffffff" d="M 137.128906 138.695312 C 127.4375 135.082031 118.039062 133.375 110.488281 133.339844 C 108.765625 133.34375 107.132812 133.433594 105.480469 133.679688 C 95.851562 133.910156 82.84375 136.03125 71.46875 139.84375 C 67.261719 140.875 63.046875 142.648438 58.621094 145 C 50.761719 149.246094 42.5 155.371094 35.742188 163.203125 C 29.078125 170.992188 23.609375 180.808594 23.550781 192.40625 C 23.488281 201.308594 27.1875 210.59375 34.445312 218.40625 C 41.695312 226.285156 52.234375 233.121094 66.90625 239.269531 C 67.410156 239.480469 67.921875 239.632812 68.4375 239.757812 C 67.492188 254.113281 65.335938 269.363281 61.316406 284.523438 C 55.519531 306.402344 45.910156 328.007812 30.632812 346.980469 C 25.121094 353.828125 26.207031 363.84375 33.066406 369.347656 C 36.007812 371.714844 39.535156 372.863281 43.039062 372.863281 C 47.699219 372.863281 52.316406 370.832031 55.464844 366.921875 C 74.078125 343.796875 85.429688 317.90625 92.113281 292.660156 C 96.265625 276.972656 98.640625 261.503906 99.847656 246.917969 C 102.386719 247.285156 104.941406 247.617188 107.457031 247.910156 C 107.65625 253.933594 107.769531 260.066406 107.769531 266.242188 C 107.832031 297.894531 104.632812 330.761719 96.078125 353.59375 C 93.023438 361.835938 97.234375 370.992188 105.484375 374.042969 C 107.308594 374.714844 109.175781 375.035156 111.011719 375.035156 C 117.488281 375.035156 123.578125 371.0625 125.957031 364.644531 C 136.695312 335.414062 139.566406 299.941406 139.628906 266.238281 C 139.625 254.203125 139.226562 242.410156 138.597656 231.28125 C 140.265625 230.890625 141.855469 230.085938 143.199219 228.835938 C 152.914062 219.800781 159.886719 211.359375 164.574219 203.183594 C 169.25 195.03125 171.632812 187.011719 171.632812 179.34375 C 171.671875 170.640625 168.4375 162.824219 163.726562 156.867188 C 156.617188 147.875 146.734375 142.363281 137.128906 138.695312 Z M 49.480469 204.652344 C 45.074219 199.738281 44.003906 196.046875 43.9375 192.40625 C 43.933594 189.242188 44.992188 185.738281 47.191406 182.011719 C 50.445312 176.441406 56.273438 170.757812 62.320312 166.597656 C 62.808594 166.253906 63.300781 165.925781 63.789062 165.601562 C 65.363281 173.453125 68.726562 193.117188 69.007812 217.90625 C 59.453125 213.347656 53.183594 208.722656 49.480469 204.652344 Z M 146.875 193.078125 C 144.636719 196.992188 141.324219 201.476562 136.773438 206.433594 C 134.480469 180.894531 131.527344 162.238281 130.855469 158.105469 C 132.992188 158.941406 135.078125 159.886719 137.019531 160.960938 C 141.515625 163.371094 145.273438 166.332031 147.652344 169.402344 C 150.039062 172.523438 151.203125 175.472656 151.242188 179.347656 C 151.238281 182.769531 150.203125 187.242188 146.875 193.078125 Z M 146.875 193.078125 " fill-opacity="1" fill-rule="nonzero"/></g><path fill="#ffffff" d="M 80.480469 132.707031 C 96.289062 131.785156 108.355469 118.234375 107.429688 102.441406 C 106.503906 86.652344 92.9375 74.597656 77.132812 75.523438 C 61.320312 76.449219 49.257812 89.996094 50.183594 105.789062 C 51.105469 121.578125 64.671875 133.628906 80.480469 132.707031 Z M 83.363281 116.417969 C 92.007812 114.234375 97.746094 107.46875 99.011719 112.464844 C 100.277344 117.464844 94.296875 123.285156 85.65625 125.46875 C 77.011719 127.652344 68.980469 125.371094 67.714844 120.371094 C 66.449219 115.371094 74.722656 118.601562 83.363281 116.417969 Z M 83.363281 116.417969 " fill-opacity="1" fill-rule="nonzero"/><path fill="#ffffff" d="M 157.355469 22.699219 L 152.507812 19.527344 L 110.046875 60.675781 L 112.242188 62.253906 Z M 157.355469 22.699219 " fill-opacity="1" fill-rule="nonzero"/><path fill="#ffffff" d="M 114.6875 0 L 99.664062 57.160156 L 102.363281 57.375 L 120.484375 0.207031 Z M 114.6875 0 " fill-opacity="1" fill-rule="nonzero"/><path fill="#ffffff" d="M 178.433594 59.082031 L 175.539062 54.0625 L 119.046875 71.609375 L 120.289062 74.003906 Z M 178.433594 59.082031 " fill-opacity="1" fill-rule="nonzero"/><path fill="#ffffff" d="M 280.523438 98.347656 C 266.703125 106.066406 261.769531 123.511719 269.496094 137.3125 C 277.226562 151.113281 294.695312 156.046875 308.511719 148.324219 C 322.328125 140.605469 327.265625 123.160156 319.535156 109.355469 C 311.808594 95.558594 294.339844 90.628906 280.523438 98.347656 Z M 273.667969 134.664062 C 273.667969 134.664062 279.828125 135.9375 290.871094 133.972656 C 307.902344 130.949219 292.359375 158 273.667969 134.664062 Z M 273.667969 134.664062 " fill-opacity="1" fill-rule="nonzero"/><path fill="#ffffff" d="M 323.910156 171.703125 C 313.53125 156.945312 298.59375 154.609375 288.695312 158.625 L 207.671875 142.3125 C 202.152344 141.199219 196.777344 144.769531 195.664062 150.28125 C 194.550781 155.796875 198.125 161.164062 203.644531 162.277344 L 278.261719 177.300781 C 278.492188 182.492188 280.109375 187.9375 283.027344 192.566406 C 283.929688 194.320312 284.894531 196.164062 285.886719 198.058594 C 286.03125 195.636719 286.089844 193.460938 286.089844 191.566406 C 286.09375 186.160156 285.632812 183.191406 285.628906 183.164062 C 284.460938 176.292969 289.125 169.707031 296.035156 168.515625 C 296.753906 168.390625 297.488281 168.328125 298.214844 168.328125 C 304.425781 168.328125 309.699219 172.769531 310.753906 178.894531 C 310.835938 179.367188 311.582031 183.8125 311.582031 191.570312 C 311.589844 201.539062 310.332031 217.964844 304.269531 239.113281 C 305 241.472656 305.660156 243.839844 306.222656 246.203125 C 304.433594 247.503906 302.566406 248.941406 300.660156 250.519531 C 296.796875 261.710938 291.632812 273.96875 284.710938 287.101562 C 282.5 291.300781 278.171875 293.90625 273.421875 293.90625 C 273.199219 293.90625 272.980469 293.878906 272.761719 293.867188 C 271.925781 297.921875 271.457031 302.183594 271.464844 306.621094 C 271.457031 316.359375 273.707031 326.757812 278.511719 337.324219 C 283.316406 347.90625 290.605469 358.699219 300.757812 369.835938 C 303.902344 373.28125 308.214844 375.03125 312.539062 375.03125 C 316.367188 375.03125 320.207031 373.664062 323.257812 370.886719 C 329.765625 364.96875 330.234375 354.90625 324.3125 348.410156 C 315.945312 339.234375 310.664062 331.109375 307.527344 324.191406 C 304.394531 317.25 303.335938 311.554688 303.324219 306.621094 C 303.34375 300.449219 304.996094 295.199219 307.796875 290.183594 C 311.953125 282.699219 319.039062 276.140625 325.199219 271.757812 C 328.257812 269.5625 331.046875 267.894531 332.984375 266.820312 C 333.953125 266.285156 334.707031 265.894531 335.179688 265.660156 C 335.414062 265.542969 335.582031 265.464844 335.667969 265.421875 L 335.671875 265.417969 C 337.285156 264.6875 338.703125 263.714844 339.933594 262.578125 C 346.6875 258.320312 351.707031 251.09375 350.5 237.59375 C 345.8125 209.515625 339.375 193.972656 323.910156 171.703125 Z M 323.910156 171.703125 " fill-opacity="1" fill-rule="nonzero"/><path fill="#ffffff" d="M 282.457031 285.914062 C 305.324219 242.511719 309.046875 208.648438 309.03125 191.570312 C 309.03125 184.117188 308.335938 179.84375 308.246094 179.328125 C 307.289062 173.785156 302.015625 170.066406 296.46875 171.027344 C 290.929688 171.980469 287.210938 177.234375 288.152344 182.765625 L 288.148438 182.765625 C 288.203125 183.097656 288.644531 186.15625 288.644531 191.570312 C 288.632812 205.765625 285.648438 236.082031 264.410156 276.433594 C 261.789062 281.410156 263.703125 287.570312 268.6875 290.191406 C 270.203125 290.984375 271.824219 291.363281 273.421875 291.363281 C 277.085938 291.359375 280.628906 289.378906 282.457031 285.914062 Z M 282.457031 285.914062 " fill-opacity="1" fill-rule="nonzero"/><path fill="#ffffff" d="M 256.785156 97.796875 L 206.476562 66.703125 L 202.417969 70.839844 L 254.976562 99.808594 Z M 256.785156 97.796875 " fill-opacity="1" fill-rule="nonzero"/><path fill="#ffffff" d="M 266.167969 92.136719 L 239.214844 39.527344 L 233.605469 40.972656 L 263.578125 92.925781 Z M 266.167969 92.136719 " fill-opacity="1" fill-rule="nonzero"/><path fill="#ffffff" d="M 189.648438 110.890625 L 249.644531 113.007812 L 250.34375 110.398438 L 191.398438 105.367188 Z M 189.648438 110.890625 " fill-opacity="1" fill-rule="nonzero"/></svg>